<svg width="928" height="196" viewBox="0 0 928 196" fill="none" xmlns="http://www.w3.org/2000/svg">
<g clip-path="url(#clip0_2011_1408)">
<path d="M274.478 149.56V32.2595H347.072V59.1879H302.897V80.1322H341.388V106.892H302.897V149.602H274.478V149.56Z" fill="#0072FF"/>
<path d="M359.078 149.56V65.8252H385.233V78.9522C389.125 70.6504 397.404 63.992 408.463 63.992C409.431 63.992 411.387 64.1606 412.19 64.3291L411.531 93.2382C407.474 92.5639 405.518 92.4164 402.429 92.4164C390.896 92.4164 385.706 100.718 385.706 111.528V149.581H359.078V149.56Z" fill="#0072FF"/>
<path d="M422.59 41.5516C422.59 33.2498 429.242 26.76 438.015 26.76C446.788 26.76 453.275 33.2498 453.275 41.5516C453.275 49.8535 446.788 56.6804 438.015 56.6804C429.242 56.6804 422.59 50.0431 422.59 41.5516ZM424.217 149.56V65.8251H451.669V149.581H424.217V149.56Z" fill="#0072FF"/>
<path d="M468.556 165.532L489.5 153.395C493.393 159.042 499.077 161.697 506.882 161.697C517.447 161.697 523.44 156.556 523.44 145.915V137.276C518.085 144.925 510.445 148.739 500.209 148.739C479.265 148.739 464.643 131.629 464.643 106.197C464.643 80.7643 479.265 63.992 500.374 63.992C510.28 63.992 518.085 67.4897 523.44 75.2859V65.8041H550.068V141.406C550.068 170.146 533.345 183.948 507.685 183.948C490.633 183.948 476.67 178.806 468.536 165.511L468.556 165.532ZM524.099 106.702C524.099 95.8931 517.92 88.7501 508.015 88.7501C498.109 88.7501 491.457 95.8931 491.457 106.702C491.457 117.512 498.274 125.139 508.015 125.139C517.756 125.139 524.099 117.659 524.099 106.702Z" fill="#0072FF"/>
<path d="M561.93 107.693C561.93 81.4386 581.247 63.992 606.104 63.992C630.961 63.992 650.114 81.4386 650.114 107.693C650.114 133.947 631.27 151.393 606.104 151.393C580.938 151.393 561.93 133.947 561.93 107.693ZM623.321 107.693C623.321 96.3988 616.669 88.7501 606.104 88.7501C595.539 88.7501 588.723 96.3988 588.723 107.693C588.723 118.987 595.869 126.635 606.104 126.635C616.34 126.635 623.321 118.987 623.321 107.693Z" fill="#0072FF"/>
<path d="M656.951 134.453C656.951 124.971 663.932 118.165 673.344 118.165C682.755 118.165 689.901 124.971 689.901 134.453C689.901 143.934 682.92 151.077 673.344 151.077C663.768 151.077 656.951 144.103 656.951 134.453Z" fill="#0072FF"/>
<path d="M830.559 100.55V149.56H803.766V106.028C803.766 93.5753 800.203 88.5816 792.892 88.5816C785.582 88.5816 780.721 95.8931 780.721 105.522V149.56H754.093V106.028C754.093 93.5753 750.53 88.5816 743.22 88.5816C735.909 88.5816 731.048 95.8931 731.048 106.197V149.56H704.42V65.8252H730.575V76.4659C735.62 68.6487 743.57 64.0131 753.805 64.0131C764.04 64.0131 771.825 68.6697 775.573 77.9619C784.016 67.1526 793.757 64.0131 802.531 64.0131C820.715 64.0131 830.621 76.1498 830.621 100.571L830.559 100.55Z" fill="#0072FF"/>
<path d="M841.618 107.693C841.618 81.4386 856.24 63.992 877.349 63.992C887.254 63.992 895.06 67.8058 900.414 76.1288V65.8252H927.042V149.581H900.414V139.446C895.06 147.432 887.419 151.415 877.184 151.415C856.24 151.415 841.618 133.968 841.618 107.714V107.693ZM901.052 107.693C901.052 96.3988 894.874 88.7501 884.968 88.7501C875.063 88.7501 868.411 96.3988 868.411 107.693C868.411 118.987 875.227 126.635 884.968 126.635C894.709 126.635 901.052 118.987 901.052 107.693Z" fill="#0072FF"/>
<path d="M221.551 98.1054L165.968 196H99.037L81.5732 165.258H149.513L188.498 96.5883L149.575 27.7713H72.0999L61.3086 46.7981H29.0995L55.6659 3.8147e-05H166.091L221.551 98.1054Z" fill="#0072FF"/>
<path d="M40.7969 82.8713L33.0329 96.5041L39.4377 107.84H102.414L89.8725 135.569H55.2539L67.3632 156.893L89.5842 196H55.6658L0 98.0212L24.3628 55.1633H135.221L150.996 82.8713H40.7969Z" fill="#0072FF"/>
</g>
<defs>
<clipPath id="clip0_2011_1408">
<rect width="927.042" height="196" fill="white"/>
</clipPath>
</defs>
</svg>
